<svg xmlns="http://www.w3.org/2000/svg" width="80" height="34" fill="none"><rect width="58.65" height="34" x="21.35" fill="#3456F3" rx="17"/><path fill="#fff" d="M34.947 21h1.207v-3.488h3.988V21h1.21v-8h-1.21v3.477h-3.988V13h-1.207v8Zm9.816.133c.992 0 1.55-.504 1.773-.953h.047V21h1.141v-3.984c0-1.746-1.375-2.094-2.328-2.094-1.086 0-2.086.437-2.477 1.531l1.098.25c.172-.426.61-.836 1.394-.836.754 0 1.141.395 1.141 1.074v.028c0 .425-.437.418-1.516.543-1.136.133-2.3.43-2.3 1.793 0 1.18.887 1.828 2.027 1.828Zm.254-.938c-.66 0-1.137-.297-1.137-.875 0-.625.555-.847 1.23-.937.38-.051 1.278-.152 1.446-.32v.773c0 .71-.566 1.36-1.539 1.36Zm5.407-.832V15H49.28v6h1.27l2.632-4.367V21h1.145v-6h-1.258l-2.645 4.363Zm2.145-6.394c0 .394-.219.742-.766.742-.555 0-.762-.352-.762-.742h-.957c0 .879.668 1.484 1.72 1.484 1.058 0 1.726-.605 1.726-1.484h-.961Zm2.584 3.039h1.965V21h1.14v-4.992h1.957V15h-5.062v1.008Zm7.442 3.355V15h-1.144v6h1.27l2.632-4.367V21h1.145v-6H65.24l-2.645 4.363Z"/></svg>